<mxfile host="app.diagrams.net" agent="Mozilla/5.0 (X11; Linux x86_64) AppleWebKit/537.36 (KHTML, like Gecko) Chrome/130.0.0.0 Safari/537.36" version="24.8.3">
  <diagram name="Page-1" id="pazCaoZUeLf8iRMA3fpz">
    <mxGraphModel dx="1912" dy="1040" grid="1" gridSize="10" guides="0" tooltips="1" connect="1" arrows="1" fold="1" page="1" pageScale="1" pageWidth="850" pageHeight="1100" math="0" shadow="0">
      <root>
        <mxCell id="0" />
        <mxCell id="1" parent="0" />
        <mxCell id="fR324A7tiwtD0hRDOKzB-23" style="edgeStyle=orthogonalEdgeStyle;rounded=0;orthogonalLoop=1;jettySize=auto;html=1;exitX=0.5;exitY=1;exitDx=0;exitDy=0;fillColor=#dae8fc;strokeColor=#6c8ebf;" parent="1" edge="1">
          <mxGeometry relative="1" as="geometry">
            <mxPoint x="260" y="760" as="targetPoint" />
            <mxPoint x="260" y="90" as="sourcePoint" />
            <Array as="points">
              <mxPoint x="260" y="540" />
              <mxPoint x="260" y="540" />
            </Array>
          </mxGeometry>
        </mxCell>
        <mxCell id="fR324A7tiwtD0hRDOKzB-1" value="EMP" style="rounded=0;whiteSpace=wrap;html=1;fillColor=#dae8fc;strokeColor=#6c8ebf;" parent="1" vertex="1">
          <mxGeometry x="200" y="40" width="120" height="40" as="geometry" />
        </mxCell>
        <mxCell id="fR324A7tiwtD0hRDOKzB-42" style="edgeStyle=orthogonalEdgeStyle;rounded=0;orthogonalLoop=1;jettySize=auto;html=1;fillColor=#dae8fc;strokeColor=#6c8ebf;" parent="1" source="fR324A7tiwtD0hRDOKzB-2" edge="1">
          <mxGeometry relative="1" as="geometry">
            <mxPoint x="660" y="760" as="targetPoint" />
            <mxPoint x="660.1285714285714" y="160" as="sourcePoint" />
          </mxGeometry>
        </mxCell>
        <mxCell id="fR324A7tiwtD0hRDOKzB-2" value="EMP Strategy" style="rounded=0;whiteSpace=wrap;html=1;fillColor=#dae8fc;strokeColor=#6c8ebf;" parent="1" vertex="1">
          <mxGeometry x="600.0999999999999" y="40" width="120" height="40" as="geometry" />
        </mxCell>
        <mxCell id="fR324A7tiwtD0hRDOKzB-48" style="edgeStyle=orthogonalEdgeStyle;rounded=0;orthogonalLoop=1;jettySize=auto;html=1;fillColor=#d5e8d4;strokeColor=#82b366;" parent="1" source="fR324A7tiwtD0hRDOKzB-3" edge="1">
          <mxGeometry relative="1" as="geometry">
            <mxPoint x="979.9" y="760" as="targetPoint" />
            <mxPoint x="979.9655172413792" y="120" as="sourcePoint" />
            <Array as="points" />
          </mxGeometry>
        </mxCell>
        <mxCell id="fR324A7tiwtD0hRDOKzB-3" value="EMP Strategy Interactor" style="rounded=0;whiteSpace=wrap;html=1;fillColor=#dae8fc;strokeColor=#6c8ebf;" parent="1" vertex="1">
          <mxGeometry x="919.9999999999999" y="40" width="120" height="40" as="geometry" />
        </mxCell>
        <mxCell id="fR324A7tiwtD0hRDOKzB-49" style="edgeStyle=orthogonalEdgeStyle;rounded=0;orthogonalLoop=1;jettySize=auto;html=1;fillColor=#d5e8d4;strokeColor=#82b366;" parent="1" source="fR324A7tiwtD0hRDOKzB-8" edge="1">
          <mxGeometry relative="1" as="geometry">
            <mxPoint x="1139.9" y="760" as="targetPoint" />
          </mxGeometry>
        </mxCell>
        <mxCell id="fR324A7tiwtD0hRDOKzB-8" value="External Protocol" style="rounded=0;whiteSpace=wrap;html=1;fillColor=#d5e8d4;strokeColor=#82b366;" parent="1" vertex="1">
          <mxGeometry x="1080" y="40" width="120" height="40" as="geometry" />
        </mxCell>
        <mxCell id="fR324A7tiwtD0hRDOKzB-19" style="edgeStyle=orthogonalEdgeStyle;rounded=0;orthogonalLoop=1;jettySize=auto;html=1;endArrow=classic;endFill=1;fillColor=#f8cecc;strokeColor=#b85450;startArrow=oval;startFill=1;" parent="1" edge="1">
          <mxGeometry relative="1" as="geometry">
            <mxPoint x="260" y="160" as="targetPoint" />
            <mxPoint x="60" y="160" as="sourcePoint" />
          </mxGeometry>
        </mxCell>
        <mxCell id="fR324A7tiwtD0hRDOKzB-20" value="utilizedERC20Deposit()" style="edgeLabel;html=1;align=center;verticalAlign=middle;resizable=0;points=[];" parent="fR324A7tiwtD0hRDOKzB-19" vertex="1" connectable="0">
          <mxGeometry x="0.1748" y="1" relative="1" as="geometry">
            <mxPoint x="-16" y="1" as="offset" />
          </mxGeometry>
        </mxCell>
        <mxCell id="fR324A7tiwtD0hRDOKzB-25" style="edgeStyle=orthogonalEdgeStyle;rounded=0;orthogonalLoop=1;jettySize=auto;html=1;dashed=1;" parent="1" source="fR324A7tiwtD0hRDOKzB-15" edge="1">
          <mxGeometry relative="1" as="geometry">
            <mxPoint x="60" y="760" as="targetPoint" />
            <mxPoint x="60.0344827586207" y="240" as="sourcePoint" />
            <Array as="points" />
          </mxGeometry>
        </mxCell>
        <mxCell id="fR324A7tiwtD0hRDOKzB-15" value="Actor" style="shape=umlActor;verticalLabelPosition=bottom;verticalAlign=top;html=1;outlineConnect=0;" parent="1" vertex="1">
          <mxGeometry x="40" y="40" width="40" height="80" as="geometry" />
        </mxCell>
        <mxCell id="fR324A7tiwtD0hRDOKzB-24" style="edgeStyle=orthogonalEdgeStyle;rounded=0;orthogonalLoop=1;jettySize=auto;html=1;fillColor=#d5e8d4;strokeColor=#82b366;exitX=0.502;exitY=0.5;exitDx=0;exitDy=0;exitPerimeter=0;" parent="1" source="fR324A7tiwtD0hRDOKzB-18" edge="1">
          <mxGeometry relative="1" as="geometry">
            <mxPoint x="1299.9" y="760" as="targetPoint" />
            <mxPoint x="639.7586206896553" y="200" as="sourcePoint" />
            <Array as="points">
              <mxPoint x="1300.0000000000002" y="640" />
            </Array>
          </mxGeometry>
        </mxCell>
        <mxCell id="fR324A7tiwtD0hRDOKzB-18" value="Some ERC20" style="rounded=0;whiteSpace=wrap;html=1;fillColor=#d5e8d4;strokeColor=#82b366;" parent="1" vertex="1">
          <mxGeometry x="1240.0000000000002" y="40" width="119.49" height="40" as="geometry" />
        </mxCell>
        <mxCell id="fR324A7tiwtD0hRDOKzB-26" style="edgeStyle=orthogonalEdgeStyle;rounded=0;orthogonalLoop=1;jettySize=auto;html=1;endArrow=classic;endFill=1;fillColor=#fff2cc;strokeColor=#d6b656;startArrow=oval;startFill=1;" parent="1" edge="1">
          <mxGeometry relative="1" as="geometry">
            <mxPoint x="260" y="280" as="targetPoint" />
            <mxPoint x="260" y="240" as="sourcePoint" />
            <Array as="points">
              <mxPoint x="320.51" y="240" />
              <mxPoint x="320.51" y="280" />
            </Array>
          </mxGeometry>
        </mxCell>
        <mxCell id="fR324A7tiwtD0hRDOKzB-31" value="utilizedERC20Update()" style="edgeLabel;html=1;align=center;verticalAlign=middle;resizable=0;points=[];" parent="fR324A7tiwtD0hRDOKzB-26" vertex="1" connectable="0">
          <mxGeometry y="-2" relative="1" as="geometry">
            <mxPoint x="2" as="offset" />
          </mxGeometry>
        </mxCell>
        <mxCell id="fR324A7tiwtD0hRDOKzB-29" style="edgeStyle=orthogonalEdgeStyle;rounded=0;orthogonalLoop=1;jettySize=auto;html=1;endArrow=classic;endFill=1;fillColor=#ffe6cc;strokeColor=#d79b00;startArrow=oval;startFill=1;" parent="1" edge="1">
          <mxGeometry relative="1" as="geometry">
            <mxPoint x="1300" y="320" as="targetPoint" />
            <mxPoint x="260.51" y="320" as="sourcePoint" />
            <Array as="points">
              <mxPoint x="1080" y="320" />
            </Array>
          </mxGeometry>
        </mxCell>
        <mxCell id="fR324A7tiwtD0hRDOKzB-30" value="transferFrom()" style="edgeLabel;html=1;align=center;verticalAlign=middle;resizable=0;points=[];" parent="fR324A7tiwtD0hRDOKzB-29" vertex="1" connectable="0">
          <mxGeometry x="0.1748" y="1" relative="1" as="geometry">
            <mxPoint x="309" y="1" as="offset" />
          </mxGeometry>
        </mxCell>
        <mxCell id="fR324A7tiwtD0hRDOKzB-34" style="edgeStyle=orthogonalEdgeStyle;rounded=0;orthogonalLoop=1;jettySize=auto;html=1;endArrow=classic;endFill=1;fillColor=#ffe6cc;strokeColor=#d79b00;startArrow=oval;startFill=1;" parent="1" edge="1">
          <mxGeometry relative="1" as="geometry">
            <mxPoint x="260" y="440" as="targetPoint" />
            <mxPoint x="261.03999999999996" y="400" as="sourcePoint" />
            <Array as="points">
              <mxPoint x="300.51" y="400" />
              <mxPoint x="300.51" y="440" />
            </Array>
          </mxGeometry>
        </mxCell>
        <mxCell id="fR324A7tiwtD0hRDOKzB-35" value="_mint()" style="edgeLabel;html=1;align=center;verticalAlign=middle;resizable=0;points=[];" parent="fR324A7tiwtD0hRDOKzB-34" vertex="1" connectable="0">
          <mxGeometry y="-2" relative="1" as="geometry">
            <mxPoint x="2" as="offset" />
          </mxGeometry>
        </mxCell>
        <mxCell id="fR324A7tiwtD0hRDOKzB-36" style="edgeStyle=orthogonalEdgeStyle;rounded=0;orthogonalLoop=1;jettySize=auto;html=1;endArrow=none;endFill=0;startArrow=classic;startFill=1;dashed=1;dashPattern=1 2;" parent="1" edge="1">
          <mxGeometry relative="1" as="geometry">
            <mxPoint x="260" y="440" as="targetPoint" />
            <mxPoint x="60" y="440" as="sourcePoint" />
          </mxGeometry>
        </mxCell>
        <mxCell id="fR324A7tiwtD0hRDOKzB-37" value="mint tokens" style="edgeLabel;html=1;align=center;verticalAlign=middle;resizable=0;points=[];" parent="fR324A7tiwtD0hRDOKzB-36" vertex="1" connectable="0">
          <mxGeometry x="0.1748" y="1" relative="1" as="geometry">
            <mxPoint x="-20" y="1" as="offset" />
          </mxGeometry>
        </mxCell>
        <mxCell id="fR324A7tiwtD0hRDOKzB-38" style="edgeStyle=orthogonalEdgeStyle;rounded=0;orthogonalLoop=1;jettySize=auto;html=1;endArrow=none;endFill=0;startArrow=classic;startFill=1;dashed=1;dashPattern=1 2;" parent="1" edge="1">
          <mxGeometry relative="1" as="geometry">
            <mxPoint x="60" y="360" as="targetPoint" />
            <mxPoint x="260" y="360" as="sourcePoint" />
          </mxGeometry>
        </mxCell>
        <mxCell id="fR324A7tiwtD0hRDOKzB-39" value="Transfer ERC20" style="edgeLabel;html=1;align=center;verticalAlign=middle;resizable=0;points=[];" parent="fR324A7tiwtD0hRDOKzB-38" vertex="1" connectable="0">
          <mxGeometry x="0.1748" y="1" relative="1" as="geometry">
            <mxPoint x="18" y="1" as="offset" />
          </mxGeometry>
        </mxCell>
        <mxCell id="fR324A7tiwtD0hRDOKzB-40" value="utilizedV1EMPStrategyDeposit()" style="edgeStyle=none;orthogonalLoop=1;jettySize=auto;html=1;rounded=0;fillColor=#f8cecc;strokeColor=#b85450;" parent="1" edge="1">
          <mxGeometry x="-0.1" width="100" relative="1" as="geometry">
            <mxPoint x="60" y="480" as="sourcePoint" />
            <mxPoint x="260" y="480" as="targetPoint" />
            <Array as="points" />
            <mxPoint as="offset" />
          </mxGeometry>
        </mxCell>
        <mxCell id="fR324A7tiwtD0hRDOKzB-43" style="edgeStyle=orthogonalEdgeStyle;rounded=0;orthogonalLoop=1;jettySize=auto;html=1;endArrow=classic;endFill=1;fillColor=#ffe6cc;strokeColor=#d79b00;startArrow=oval;startFill=1;" parent="1" edge="1">
          <mxGeometry relative="1" as="geometry">
            <mxPoint x="660" y="520" as="targetPoint" />
            <mxPoint x="259.75" y="520" as="sourcePoint" />
          </mxGeometry>
        </mxCell>
        <mxCell id="fR324A7tiwtD0hRDOKzB-44" value="utilizedERC20Deposit()" style="edgeLabel;html=1;align=center;verticalAlign=middle;resizable=0;points=[];" parent="fR324A7tiwtD0hRDOKzB-43" vertex="1" connectable="0">
          <mxGeometry x="0.1748" y="1" relative="1" as="geometry">
            <mxPoint x="65" y="1" as="offset" />
          </mxGeometry>
        </mxCell>
        <mxCell id="fR324A7tiwtD0hRDOKzB-45" style="edgeStyle=orthogonalEdgeStyle;rounded=0;orthogonalLoop=1;jettySize=auto;html=1;endArrow=classic;endFill=1;fillColor=#ffe6cc;strokeColor=#d79b00;startArrow=oval;startFill=1;" parent="1" edge="1">
          <mxGeometry relative="1" as="geometry">
            <mxPoint x="980" y="600" as="targetPoint" />
            <mxPoint x="660.0999999999999" y="600" as="sourcePoint" />
          </mxGeometry>
        </mxCell>
        <mxCell id="fR324A7tiwtD0hRDOKzB-47" value="utilizedERC20Deposit()" style="edgeLabel;html=1;align=center;verticalAlign=middle;resizable=0;points=[];" parent="fR324A7tiwtD0hRDOKzB-45" vertex="1" connectable="0">
          <mxGeometry x="-0.3854" y="1" relative="1" as="geometry">
            <mxPoint x="-38" as="offset" />
          </mxGeometry>
        </mxCell>
        <mxCell id="fR324A7tiwtD0hRDOKzB-50" style="edgeStyle=orthogonalEdgeStyle;rounded=0;orthogonalLoop=1;jettySize=auto;html=1;endArrow=none;endFill=0;startArrow=classic;startFill=1;dashed=1;dashPattern=1 2;" parent="1" edge="1">
          <mxGeometry relative="1" as="geometry">
            <mxPoint x="260" y="680" as="targetPoint" />
            <mxPoint x="1140" y="680" as="sourcePoint" />
          </mxGeometry>
        </mxCell>
        <mxCell id="fR324A7tiwtD0hRDOKzB-51" value="Transfer ERC20" style="edgeLabel;html=1;align=center;verticalAlign=middle;resizable=0;points=[];" parent="fR324A7tiwtD0hRDOKzB-50" vertex="1" connectable="0">
          <mxGeometry x="0.1748" y="1" relative="1" as="geometry">
            <mxPoint x="-113" y="1" as="offset" />
          </mxGeometry>
        </mxCell>
        <mxCell id="fR324A7tiwtD0hRDOKzB-52" style="edgeStyle=orthogonalEdgeStyle;rounded=0;orthogonalLoop=1;jettySize=auto;html=1;endArrow=classic;endFill=1;fillColor=#ffe6cc;strokeColor=#d79b00;startArrow=oval;startFill=1;" parent="1" edge="1">
          <mxGeometry relative="1" as="geometry">
            <mxPoint x="1300.0000000000002" y="640" as="targetPoint" />
            <mxPoint x="979.9999999999999" y="640" as="sourcePoint" />
            <Array as="points">
              <mxPoint x="1210.0000000000002" y="640" />
            </Array>
          </mxGeometry>
        </mxCell>
        <mxCell id="fR324A7tiwtD0hRDOKzB-53" value="transferFrom()" style="edgeLabel;html=1;align=center;verticalAlign=middle;resizable=0;points=[];" parent="fR324A7tiwtD0hRDOKzB-52" vertex="1" connectable="0">
          <mxGeometry x="0.1748" y="1" relative="1" as="geometry">
            <mxPoint x="12" y="1" as="offset" />
          </mxGeometry>
        </mxCell>
        <mxCell id="fR324A7tiwtD0hRDOKzB-54" style="edgeStyle=orthogonalEdgeStyle;rounded=0;orthogonalLoop=1;jettySize=auto;html=1;endArrow=none;endFill=0;startArrow=classic;startFill=1;dashed=1;dashPattern=1 2;" parent="1" edge="1">
          <mxGeometry relative="1" as="geometry">
            <mxPoint x="260" y="320" as="targetPoint" />
            <mxPoint x="60" y="320" as="sourcePoint" />
          </mxGeometry>
        </mxCell>
        <mxCell id="fR324A7tiwtD0hRDOKzB-56" style="edgeStyle=orthogonalEdgeStyle;rounded=0;orthogonalLoop=1;jettySize=auto;html=1;endArrow=none;endFill=0;startArrow=classic;startFill=1;dashed=1;dashPattern=1 2;" parent="1" edge="1">
          <mxGeometry relative="1" as="geometry">
            <mxPoint x="60" y="320" as="targetPoint" />
            <mxPoint x="60" y="360" as="sourcePoint" />
            <Array as="points">
              <mxPoint x="40" y="360" />
              <mxPoint x="40" y="320" />
            </Array>
          </mxGeometry>
        </mxCell>
        <mxCell id="fR324A7tiwtD0hRDOKzB-57" style="edgeStyle=orthogonalEdgeStyle;rounded=0;orthogonalLoop=1;jettySize=auto;html=1;endArrow=none;endFill=0;startArrow=classic;startFill=1;dashed=1;dashPattern=1 2;" parent="1" edge="1">
          <mxGeometry relative="1" as="geometry">
            <mxPoint x="259.96000000000004" y="640" as="targetPoint" />
            <mxPoint x="259.96000000000004" y="680" as="sourcePoint" />
            <Array as="points">
              <mxPoint x="239.96" y="680" />
              <mxPoint x="239.96" y="640" />
            </Array>
          </mxGeometry>
        </mxCell>
        <mxCell id="fR324A7tiwtD0hRDOKzB-58" style="edgeStyle=orthogonalEdgeStyle;rounded=0;orthogonalLoop=1;jettySize=auto;html=1;endArrow=none;endFill=0;startArrow=classic;startFill=1;dashed=1;dashPattern=1 2;" parent="1" edge="1">
          <mxGeometry relative="1" as="geometry">
            <mxPoint x="980" y="640" as="targetPoint" />
            <mxPoint x="260" y="640" as="sourcePoint" />
          </mxGeometry>
        </mxCell>
        <mxCell id="dY4Isz8nKz-BvBwB_T4C-2" style="edgeStyle=orthogonalEdgeStyle;rounded=0;orthogonalLoop=1;jettySize=auto;html=1;exitX=0.5;exitY=1;exitDx=0;exitDy=0;fillColor=#dae8fc;strokeColor=#6c8ebf;" edge="1" parent="1" source="dY4Isz8nKz-BvBwB_T4C-1">
          <mxGeometry relative="1" as="geometry">
            <mxPoint x="500" y="760" as="targetPoint" />
          </mxGeometry>
        </mxCell>
        <mxCell id="dY4Isz8nKz-BvBwB_T4C-1" value="EMP Utility" style="rounded=0;whiteSpace=wrap;html=1;fillColor=#dae8fc;strokeColor=#6c8ebf;" vertex="1" parent="1">
          <mxGeometry x="440.1" y="40" width="120" height="40" as="geometry" />
        </mxCell>
        <mxCell id="dY4Isz8nKz-BvBwB_T4C-3" style="edgeStyle=orthogonalEdgeStyle;rounded=0;orthogonalLoop=1;jettySize=auto;html=1;endArrow=classic;endFill=1;fillColor=#fff2cc;strokeColor=#d6b656;startArrow=oval;startFill=1;" edge="1" parent="1">
          <mxGeometry relative="1" as="geometry">
            <mxPoint x="500" y="200" as="targetPoint" />
            <mxPoint x="259.48" y="200" as="sourcePoint" />
            <Array as="points">
              <mxPoint x="370" y="200" />
              <mxPoint x="370" y="200" />
            </Array>
          </mxGeometry>
        </mxCell>
        <mxCell id="dY4Isz8nKz-BvBwB_T4C-4" value="v1EMPStrategyUtilizedERC20AmountValid()" style="edgeLabel;html=1;align=center;verticalAlign=middle;resizable=0;points=[];" vertex="1" connectable="0" parent="dY4Isz8nKz-BvBwB_T4C-3">
          <mxGeometry y="-2" relative="1" as="geometry">
            <mxPoint x="1" y="-2" as="offset" />
          </mxGeometry>
        </mxCell>
        <mxCell id="dY4Isz8nKz-BvBwB_T4C-24" style="edgeStyle=orthogonalEdgeStyle;rounded=0;orthogonalLoop=1;jettySize=auto;html=1;fillColor=#dae8fc;strokeColor=#6c8ebf;" edge="1" parent="1" source="dY4Isz8nKz-BvBwB_T4C-23">
          <mxGeometry relative="1" as="geometry">
            <mxPoint x="820" y="760" as="targetPoint" />
          </mxGeometry>
        </mxCell>
        <mxCell id="dY4Isz8nKz-BvBwB_T4C-23" value="EMP Strategy Utility" style="rounded=0;whiteSpace=wrap;html=1;fillColor=#dae8fc;strokeColor=#6c8ebf;" vertex="1" parent="1">
          <mxGeometry x="759.9999999999999" y="40" width="120" height="40" as="geometry" />
        </mxCell>
        <mxCell id="dY4Isz8nKz-BvBwB_T4C-25" style="edgeStyle=orthogonalEdgeStyle;rounded=0;orthogonalLoop=1;jettySize=auto;html=1;endArrow=classic;endFill=1;fillColor=#ffe6cc;strokeColor=#d79b00;startArrow=oval;startFill=1;" edge="1" parent="1">
          <mxGeometry relative="1" as="geometry">
            <mxPoint x="820" y="560" as="targetPoint" />
            <mxPoint x="659.9999999999999" y="560" as="sourcePoint" />
          </mxGeometry>
        </mxCell>
        <mxCell id="dY4Isz8nKz-BvBwB_T4C-26" value="depositAmountsValid()" style="edgeLabel;html=1;align=center;verticalAlign=middle;resizable=0;points=[];" vertex="1" connectable="0" parent="dY4Isz8nKz-BvBwB_T4C-25">
          <mxGeometry x="-0.3854" y="1" relative="1" as="geometry">
            <mxPoint x="11" as="offset" />
          </mxGeometry>
        </mxCell>
      </root>
    </mxGraphModel>
  </diagram>
</mxfile>
